<?xml version="1.0" encoding="UTF-8" standalone="no"?>
<!DOCTYPE svg PUBLIC "-//W3C//DTD SVG 1.1//EN" "http://www.w3.org/Graphics/SVG/1.1/DTD/svg11.dtd">
<svg xmlns="http://www.w3.org/2000/svg" aria-hidden="true" style="position: absolute; width: 0; height: 0; overflow: hidden;">
  <def>
    <symbol id="user">
      <path d="M313.6 288c-28.7 0-42.5 16-89.6 16-47.1 0-60.8-16-89.6-16C60.2 288 0 348.2 0 422.4V464c0 26.5 21.5 48 48 48h352c26.5 0 48-21.5 48-48v-41.6c0-74.2-60.2-134.4-134.4-134.4zM416 464c0 8.8-7.2 16-16 16H48c-8.8 0-16-7.2-16-16v-41.6C32 365.9 77.9 320 134.4 320c19.6 0 39.1 16 89.6 16 50.4 0 70-16 89.6-16 56.5 0 102.4 45.9 102.4 102.4V464zM224 256c70.7 0 128-57.3 128-128S294.7 0 224 0 96 57.3 96 128s57.3 128 128 128zm0-224c52.9 0 96 43.1 96 96s-43.1 96-96 96-96-43.1-96-96 43.1-96 96-96z" class=""></path>
    </symbol>
    
    <symbol id="cloud_download">
      <path d="M571.7 238.8c2.8-9.9 4.3-20.2 4.3-30.8 0-61.9-50.1-112-112-112-16.7 0-32.9 3.6-48 10.8-31.6-45-84.3-74.8-144-74.8-94.4 0-171.7 74.5-175.8 168.2C39.2 220.2 0 274.3 0 336c0 79.6 64.4 144 144 144h368c70.7 0 128-57.2 128-128 0-47-25.8-90.8-68.3-113.2zM512 448H144c-61.9 0-112-50.1-112-112 0-56.8 42.2-103.7 97-111-.7-5.6-1-11.3-1-17 0-79.5 64.5-144 144-144 60.3 0 111.9 37 133.4 89.6C420 137.9 440.8 128 464 128c44.2 0 80 35.8 80 80 0 18.5-6.3 35.6-16.9 49.2C573 264.4 608 304.1 608 352c0 53-43 96-96 96zM405.2 254.5c-4.7-4.7-12.3-4.7-17 0L320 322.7V172c0-6.6-5.4-12-12-12h-8c-6.6 0-12 5.4-12 12v150.7l-68.2-68.2c-4.7-4.7-12.3-4.7-17 0l-5.7 5.7c-4.7 4.7-4.7 12.3 0 17l98.3 98.3c4.7 4.7 12.3 4.7 17 0l98.3-98.3c4.7-4.7 4.7-12.3 0-17l-5.5-5.7z" class=""></path>
    </symbol>
    
    <symbol id="accounting">
      <path d="M248 8C111 8 0 119 0 256s111 248 248 248 248-111 248-248S385 8 248 8zm0 464c-119.1 0-216-96.9-216-216S128.9 40 248 40s216 96.9 216 216-96.9 216-216 216zm40.3-221.3l-72-20.2c-12.1-3.4-20.6-14.4-20.6-26.7 0-15.3 12.8-27.8 28.5-27.8h45c11.2 0 21.9 3.6 30.6 10.1 3.2 2.4 7.6 2 10.4-.8l11.3-11.5c3.4-3.4 3-9-.8-12-14.6-11.6-32.6-17.9-51.6-17.9H264v-40c0-4.4-3.6-8-8-8h-16c-4.4 0-8 3.6-8 8v40h-7.8c-33.3 0-60.5 26.8-60.5 59.8 0 26.6 18.1 50.2 43.9 57.5l72 20.2c12.1 3.4 20.6 14.4 20.6 26.7 0 15.3-12.8 27.8-28.5 27.8h-45c-11.2 0-21.9-3.6-30.6-10.1-3.2-2.4-7.6-2-10.4.8l-11.3 11.5c-3.4 3.4-3 9 .8 12 14.6 11.6 32.6 17.9 51.6 17.9h5.2v40c0 4.4 3.6 8 8 8h16c4.4 0 8-3.6 8-8v-40h7.8c33.3 0 60.5-26.8 60.5-59.8-.1-26.6-18.1-50.2-44-57.5z" class=""></path>
    </symbol>
    
    <symbol id="announcement">
      <path d="M448 0H64C28.7 0 0 28.7 0 64v288c0 35.3 28.7 64 64 64h96v84c0 7.1 5.8 12 12 12 2.4 0 4.9-.7 7.1-2.4L304 416h144c35.3 0 64-28.7 64-64V64c0-35.3-28.7-64-64-64zm32 352c0 17.6-14.4 32-32 32H293.3l-8.5 6.4L192 460v-76H64c-17.6 0-32-14.4-32-32V64c0-17.6 14.4-32 32-32h384c17.6 0 32 14.4 32 32v288zm-224-88c-13.3 0-24 10.7-24 24s10.7 24 24 24 24-10.7 24-24-10.7-24-24-24zm-8.5-24h17c4.2 0 7.7-3.3 8-7.5l7-112c.3-4.6-3.4-8.5-8-8.5h-31c-4.6 0-8.3 3.9-8 8.5l7 112c.3 4.2 3.8 7.5 8 7.5z" class=""></path>
    </symbol>
    
    <symbol id="area-chart">
      <path d="M500 416c6.6 0 12 5.4 12 12v8c0 6.6-5.4 12-12 12H12c-6.6 0-12-5.4-12-12V76c0-6.6 5.4-12 12-12h8c6.6 0 12 5.4 12 12v340h468zM372 162l-84 54-86.5-84.5c-5.1-5.1-13.4-4.6-17.9 1L64 288v96h416l-90.3-216.7c-3-6.9-11.5-9.4-17.7-5.3zM96 299.2l98.7-131.3 89.3 89.3 85.8-57.2 61.7 152H96v-52.8z" class=""></path>
    </symbol>
    
    <symbol id="book">
      <path d="M356 160H188c-6.6 0-12-5.4-12-12v-8c0-6.6 5.4-12 12-12h168c6.6 0 12 5.4 12 12v8c0 6.6-5.4 12-12 12zm12 52v-8c0-6.6-5.4-12-12-12H188c-6.6 0-12 5.4-12 12v8c0 6.6 5.4 12 12 12h168c6.6 0 12-5.4 12-12zm64.7 268h3.3c6.6 0 12 5.4 12 12v8c0 6.6-5.4 12-12 12H80c-44.2 0-80-35.8-80-80V80C0 35.8 35.8 0 80 0h344c13.3 0 24 10.7 24 24v368c0 10-6.2 18.6-14.9 22.2-3.6 16.1-4.4 45.6-.4 65.8zM128 384h288V32H128v352zm-96 16c13.4-10 30-16 48-16h16V32H80c-26.5 0-48 21.5-48 48v320zm372.3 80c-3.1-20.4-2.9-45.2 0-64H80c-64 0-64 64 0 64h324.3z" class=""></path>
    </symbol>
  </def>
</svg>